<mxfile host="Electron" modified="2023-10-25T16:04:18.786Z" agent="Mozilla/5.0 (Windows NT 10.0; Win64; x64) AppleWebKit/537.36 (KHTML, like Gecko) draw.io/22.0.3 Chrome/114.0.5735.289 Electron/25.8.4 Safari/537.36" etag="M2dQl5j_hE3jAnMF1Eyp" version="22.0.3" type="device">
  <diagram name="Page-1" id="6_6YWEmWyVH2T3ebLcOv">
    <mxGraphModel dx="1500" dy="899" grid="1" gridSize="10" guides="1" tooltips="1" connect="1" arrows="1" fold="1" page="1" pageScale="1" pageWidth="827" pageHeight="1169" math="0" shadow="0">
      <root>
        <mxCell id="0" />
        <mxCell id="1" parent="0" />
        <mxCell id="IHbFPnuShqrP4Ap7xgjh-1" value="" style="ellipse;html=1;shape=startState;fillColor=#000000;strokeColor=#ff0000;" parent="1" vertex="1">
          <mxGeometry x="399" y="280" width="30" height="30" as="geometry" />
        </mxCell>
        <mxCell id="IHbFPnuShqrP4Ap7xgjh-2" value="" style="edgeStyle=orthogonalEdgeStyle;html=1;verticalAlign=bottom;endArrow=open;endSize=8;strokeColor=#ff0000;rounded=0;" parent="1" edge="1">
          <mxGeometry relative="1" as="geometry">
            <mxPoint x="413" y="340" as="targetPoint" />
            <mxPoint x="413" y="310" as="sourcePoint" />
          </mxGeometry>
        </mxCell>
        <mxCell id="IHbFPnuShqrP4Ap7xgjh-24" style="edgeStyle=orthogonalEdgeStyle;shape=connector;rounded=0;orthogonalLoop=1;jettySize=auto;html=1;entryX=0.5;entryY=0;entryDx=0;entryDy=0;labelBackgroundColor=default;strokeColor=#ff0000;align=center;verticalAlign=bottom;fontFamily=Helvetica;fontSize=11;fontColor=default;endArrow=open;endSize=8;" parent="1" source="IHbFPnuShqrP4Ap7xgjh-3" target="IHbFPnuShqrP4Ap7xgjh-4" edge="1">
          <mxGeometry relative="1" as="geometry" />
        </mxCell>
        <mxCell id="IHbFPnuShqrP4Ap7xgjh-3" value="Assing components" style="html=1;whiteSpace=wrap;" parent="1" vertex="1">
          <mxGeometry x="359" y="350" width="110" height="50" as="geometry" />
        </mxCell>
        <mxCell id="IHbFPnuShqrP4Ap7xgjh-4" value="Assing event&lt;br&gt;listeners" style="html=1;whiteSpace=wrap;" parent="1" vertex="1">
          <mxGeometry x="359" y="440" width="110" height="50" as="geometry" />
        </mxCell>
        <mxCell id="IHbFPnuShqrP4Ap7xgjh-14" style="edgeStyle=orthogonalEdgeStyle;shape=connector;rounded=0;orthogonalLoop=1;jettySize=auto;html=1;entryX=0.5;entryY=0;entryDx=0;entryDy=0;labelBackgroundColor=default;strokeColor=#ff0000;align=center;verticalAlign=bottom;fontFamily=Helvetica;fontSize=11;fontColor=default;endArrow=open;endSize=8;" parent="1" source="IHbFPnuShqrP4Ap7xgjh-7" target="IHbFPnuShqrP4Ap7xgjh-10" edge="1">
          <mxGeometry relative="1" as="geometry" />
        </mxCell>
        <mxCell id="IHbFPnuShqrP4Ap7xgjh-7" value="" style="shape=line;html=1;strokeWidth=6;strokeColor=#ff0000;fontFamily=Helvetica;fontSize=11;fontColor=default;" parent="1" vertex="1">
          <mxGeometry x="347.5" y="545" width="135" height="10" as="geometry" />
        </mxCell>
        <mxCell id="IHbFPnuShqrP4Ap7xgjh-8" value="" style="edgeStyle=orthogonalEdgeStyle;html=1;verticalAlign=bottom;endArrow=open;endSize=8;strokeColor=#ff0000;rounded=0;labelBackgroundColor=default;align=center;fontFamily=Helvetica;fontSize=11;fontColor=default;shape=connector;entryX=0.5;entryY=0;entryDx=0;entryDy=0;" parent="1" source="IHbFPnuShqrP4Ap7xgjh-7" target="IHbFPnuShqrP4Ap7xgjh-9" edge="1">
          <mxGeometry relative="1" as="geometry">
            <mxPoint x="382.5" y="625" as="targetPoint" />
          </mxGeometry>
        </mxCell>
        <mxCell id="IHbFPnuShqrP4Ap7xgjh-15" style="edgeStyle=orthogonalEdgeStyle;shape=connector;rounded=0;orthogonalLoop=1;jettySize=auto;html=1;entryX=0.5;entryY=0;entryDx=0;entryDy=0;labelBackgroundColor=default;strokeColor=#ff0000;align=center;verticalAlign=bottom;fontFamily=Helvetica;fontSize=11;fontColor=default;endArrow=open;endSize=8;" parent="1" source="IHbFPnuShqrP4Ap7xgjh-9" target="IHbFPnuShqrP4Ap7xgjh-12" edge="1">
          <mxGeometry relative="1" as="geometry" />
        </mxCell>
        <mxCell id="IHbFPnuShqrP4Ap7xgjh-9" value="Set new base number" style="html=1;whiteSpace=wrap;" parent="1" vertex="1">
          <mxGeometry x="260" y="640" width="110" height="50" as="geometry" />
        </mxCell>
        <mxCell id="IHbFPnuShqrP4Ap7xgjh-21" style="edgeStyle=orthogonalEdgeStyle;shape=connector;rounded=0;orthogonalLoop=1;jettySize=auto;html=1;entryX=0.5;entryY=0;entryDx=0;entryDy=0;labelBackgroundColor=default;strokeColor=#ff0000;align=center;verticalAlign=bottom;fontFamily=Helvetica;fontSize=11;fontColor=default;endArrow=open;endSize=8;" parent="1" source="IHbFPnuShqrP4Ap7xgjh-10" target="IHbFPnuShqrP4Ap7xgjh-11" edge="1">
          <mxGeometry relative="1" as="geometry" />
        </mxCell>
        <mxCell id="IHbFPnuShqrP4Ap7xgjh-10" value="Set new tool&lt;br&gt;number" style="html=1;whiteSpace=wrap;" parent="1" vertex="1">
          <mxGeometry x="460" y="640" width="110" height="50" as="geometry" />
        </mxCell>
        <mxCell id="IHbFPnuShqrP4Ap7xgjh-11" value="Attach or deattach&lt;br&gt;tool prefab" style="html=1;whiteSpace=wrap;" parent="1" vertex="1">
          <mxGeometry x="460" y="760" width="110" height="50" as="geometry" />
        </mxCell>
        <mxCell id="IHbFPnuShqrP4Ap7xgjh-12" value="Attach or deattach&lt;br&gt;base prefab" style="html=1;whiteSpace=wrap;" parent="1" vertex="1">
          <mxGeometry x="260" y="760" width="110" height="50" as="geometry" />
        </mxCell>
        <mxCell id="IHbFPnuShqrP4Ap7xgjh-26" style="edgeStyle=orthogonalEdgeStyle;shape=connector;rounded=0;orthogonalLoop=1;jettySize=auto;html=1;entryX=0.5;entryY=0;entryDx=0;entryDy=0;labelBackgroundColor=default;strokeColor=#ff0000;align=center;verticalAlign=bottom;fontFamily=Helvetica;fontSize=11;fontColor=default;endArrow=open;endSize=8;" parent="1" source="IHbFPnuShqrP4Ap7xgjh-13" target="IHbFPnuShqrP4Ap7xgjh-25" edge="1">
          <mxGeometry relative="1" as="geometry" />
        </mxCell>
        <mxCell id="IHbFPnuShqrP4Ap7xgjh-13" value="" style="shape=line;html=1;strokeWidth=6;strokeColor=#ff0000;fontFamily=Helvetica;fontSize=11;fontColor=default;" parent="1" vertex="1">
          <mxGeometry x="346" y="880" width="135" height="10" as="geometry" />
        </mxCell>
        <mxCell id="IHbFPnuShqrP4Ap7xgjh-19" style="edgeStyle=orthogonalEdgeStyle;shape=connector;rounded=0;orthogonalLoop=1;jettySize=auto;html=1;entryX=0.75;entryY=0.5;entryDx=0;entryDy=0;entryPerimeter=0;labelBackgroundColor=default;strokeColor=#ff0000;align=center;verticalAlign=bottom;fontFamily=Helvetica;fontSize=11;fontColor=default;endArrow=open;endSize=8;" parent="1" source="IHbFPnuShqrP4Ap7xgjh-11" target="IHbFPnuShqrP4Ap7xgjh-13" edge="1">
          <mxGeometry relative="1" as="geometry" />
        </mxCell>
        <mxCell id="IHbFPnuShqrP4Ap7xgjh-20" style="edgeStyle=orthogonalEdgeStyle;shape=connector;rounded=0;orthogonalLoop=1;jettySize=auto;html=1;entryX=0.25;entryY=0.5;entryDx=0;entryDy=0;entryPerimeter=0;labelBackgroundColor=default;strokeColor=#ff0000;align=center;verticalAlign=bottom;fontFamily=Helvetica;fontSize=11;fontColor=default;endArrow=open;endSize=8;" parent="1" source="IHbFPnuShqrP4Ap7xgjh-12" target="IHbFPnuShqrP4Ap7xgjh-13" edge="1">
          <mxGeometry relative="1" as="geometry" />
        </mxCell>
        <mxCell id="IHbFPnuShqrP4Ap7xgjh-22" style="edgeStyle=orthogonalEdgeStyle;shape=connector;rounded=0;orthogonalLoop=1;jettySize=auto;html=1;entryX=0.495;entryY=0.271;entryDx=0;entryDy=0;entryPerimeter=0;labelBackgroundColor=default;strokeColor=#ff0000;align=center;verticalAlign=bottom;fontFamily=Helvetica;fontSize=11;fontColor=default;endArrow=open;endSize=8;" parent="1" source="IHbFPnuShqrP4Ap7xgjh-4" target="IHbFPnuShqrP4Ap7xgjh-7" edge="1">
          <mxGeometry relative="1" as="geometry" />
        </mxCell>
        <mxCell id="IHbFPnuShqrP4Ap7xgjh-25" value="" style="ellipse;html=1;shape=endState;fillColor=#000000;strokeColor=#ff0000;fontFamily=Helvetica;fontSize=11;fontColor=default;" parent="1" vertex="1">
          <mxGeometry x="399" y="950" width="30" height="30" as="geometry" />
        </mxCell>
        <mxCell id="IHbFPnuShqrP4Ap7xgjh-33" style="edgeStyle=orthogonalEdgeStyle;shape=connector;rounded=0;orthogonalLoop=1;jettySize=auto;html=1;labelBackgroundColor=default;strokeColor=#ff0000;align=center;verticalAlign=bottom;fontFamily=Helvetica;fontSize=11;fontColor=default;endArrow=open;endSize=8;" parent="1" edge="1">
          <mxGeometry relative="1" as="geometry">
            <mxPoint x="104.75" y="380" as="targetPoint" />
            <mxPoint x="105" y="350" as="sourcePoint" />
          </mxGeometry>
        </mxCell>
        <mxCell id="IHbFPnuShqrP4Ap7xgjh-27" value="Actor" style="shape=umlActor;verticalLabelPosition=bottom;verticalAlign=top;html=1;fontFamily=Helvetica;fontSize=11;fontColor=default;" parent="1" vertex="1">
          <mxGeometry x="90" y="265" width="30" height="60" as="geometry" />
        </mxCell>
        <mxCell id="IHbFPnuShqrP4Ap7xgjh-30" style="edgeStyle=orthogonalEdgeStyle;shape=connector;rounded=0;orthogonalLoop=1;jettySize=auto;html=1;entryX=0.5;entryY=0;entryDx=0;entryDy=0;labelBackgroundColor=default;strokeColor=#ff0000;align=center;verticalAlign=bottom;fontFamily=Helvetica;fontSize=11;fontColor=default;endArrow=open;endSize=8;" parent="1" source="IHbFPnuShqrP4Ap7xgjh-28" target="IHbFPnuShqrP4Ap7xgjh-29" edge="1">
          <mxGeometry relative="1" as="geometry" />
        </mxCell>
        <mxCell id="IHbFPnuShqrP4Ap7xgjh-28" value="Idle" style="html=1;whiteSpace=wrap;" parent="1" vertex="1">
          <mxGeometry x="50" y="380" width="110" height="50" as="geometry" />
        </mxCell>
        <mxCell id="IHbFPnuShqrP4Ap7xgjh-32" style="edgeStyle=orthogonalEdgeStyle;shape=connector;rounded=0;orthogonalLoop=1;jettySize=auto;html=1;entryX=1;entryY=0.5;entryDx=0;entryDy=0;labelBackgroundColor=default;strokeColor=#ff0000;align=center;verticalAlign=bottom;fontFamily=Helvetica;fontSize=11;fontColor=default;endArrow=open;endSize=8;" parent="1" source="IHbFPnuShqrP4Ap7xgjh-29" target="IHbFPnuShqrP4Ap7xgjh-28" edge="1">
          <mxGeometry relative="1" as="geometry">
            <Array as="points">
              <mxPoint x="200" y="500" />
              <mxPoint x="200" y="405" />
            </Array>
          </mxGeometry>
        </mxCell>
        <mxCell id="IHbFPnuShqrP4Ap7xgjh-29" value="Top menu&lt;br&gt;button click" style="html=1;whiteSpace=wrap;" parent="1" vertex="1">
          <mxGeometry x="50" y="470" width="110" height="50" as="geometry" />
        </mxCell>
        <mxCell id="IHbFPnuShqrP4Ap7xgjh-31" style="edgeStyle=orthogonalEdgeStyle;shape=connector;rounded=0;orthogonalLoop=1;jettySize=auto;html=1;entryX=0;entryY=0.5;entryDx=0;entryDy=0;entryPerimeter=0;labelBackgroundColor=default;strokeColor=#ff0000;align=center;verticalAlign=bottom;fontFamily=Helvetica;fontSize=11;fontColor=default;endArrow=open;endSize=8;" parent="1" source="IHbFPnuShqrP4Ap7xgjh-29" target="IHbFPnuShqrP4Ap7xgjh-7" edge="1">
          <mxGeometry relative="1" as="geometry">
            <Array as="points">
              <mxPoint x="105" y="550" />
            </Array>
          </mxGeometry>
        </mxCell>
        <mxCell id="Pc6uezNLJfJ4mS3eP7FH-1" value="View" style="swimlane;whiteSpace=wrap" vertex="1" parent="1">
          <mxGeometry x="20" y="220" width="200" height="780" as="geometry" />
        </mxCell>
        <mxCell id="Pc6uezNLJfJ4mS3eP7FH-14" value="Controler" style="swimlane;whiteSpace=wrap" vertex="1" parent="1">
          <mxGeometry x="220" y="220" width="380" height="780" as="geometry" />
        </mxCell>
        <mxCell id="Pc6uezNLJfJ4mS3eP7FH-41" value="Behavoir" style="swimlane;whiteSpace=wrap;startSize=23;" vertex="1" parent="1">
          <mxGeometry x="600" y="220" width="144.5" height="780" as="geometry" />
        </mxCell>
        <mxCell id="Pc6uezNLJfJ4mS3eP7FH-46" value="" style="ellipse;html=1;shape=endState;fillColor=#000000;strokeColor=#ff0000;fontFamily=Helvetica;fontSize=11;fontColor=default;" vertex="1" parent="Pc6uezNLJfJ4mS3eP7FH-41">
          <mxGeometry x="50" y="730" width="30" height="30" as="geometry" />
        </mxCell>
        <mxCell id="Pc6uezNLJfJ4mS3eP7FH-48" style="edgeStyle=orthogonalEdgeStyle;shape=connector;rounded=0;orthogonalLoop=1;jettySize=auto;html=1;entryX=0.5;entryY=0;entryDx=0;entryDy=0;labelBackgroundColor=default;strokeColor=#ff0000;align=center;verticalAlign=bottom;fontFamily=Helvetica;fontSize=11;fontColor=default;endArrow=open;endSize=8;" edge="1" parent="Pc6uezNLJfJ4mS3eP7FH-41" source="Pc6uezNLJfJ4mS3eP7FH-47" target="Pc6uezNLJfJ4mS3eP7FH-46">
          <mxGeometry relative="1" as="geometry" />
        </mxCell>
        <mxCell id="Pc6uezNLJfJ4mS3eP7FH-47" value="" style="ellipse;html=1;shape=startState;fillColor=#000000;strokeColor=#ff0000;" vertex="1" parent="Pc6uezNLJfJ4mS3eP7FH-41">
          <mxGeometry x="50" y="60" width="30" height="30" as="geometry" />
        </mxCell>
      </root>
    </mxGraphModel>
  </diagram>
</mxfile>
